:SAMPLES-PER-SECOND 30
:FULLY-SPECIFIED
:DEGREES
1044
root  11.2503 39.2892 3.37919 175.154 -81.263 -176.209
RightUpLeg  -26.5446 -15.3069 0.372673
RightLeg  25.5546 -4.36468 -2.52612
RightFoot  -3.64783 -0.510627 7.2148
RightToes  0.00048216 0.542163 -0.142577
Spine  17.6947 0.378152 1.73695
Spine1  -0.218322 1.16552 -3.30396
HEad  5.24608 2.83947 1.23834
LeftShoulder1  4.02134 -7.26115 -31.2681
LeftArm  -27.529 17.7257 -14.4141
LeftForeArm  9.02569 -12.8053 -0.0240877
LeftHand  -0.25398 0.0180481 5.50724
RightShoulder  1.91366 3.4262 21.2883
RightArm  -18.6135 -21.6703 15.4822
RightForeArm  -1.69874 6.84797 3.2107
RightHand  -1.73569 4.86204 -19.8334
LeftUpLeg  9.08237 7.91486 0.701051
LeftLeg  12.9716 20.7145 -0.164213
LeftFoot  -22.3898 -0.334832 -4.84888
LeftToes  1.06244e-005 4.65855e-005 -8.18506e-006
1045
root  10.6152 39.1154 3.18886 177.446 -81.6487 -178.498
RightUpLeg  -27.0012 -16.3198 1.07293
RightLeg  18.3819 -4.38414 -1.68007
RightFoot  -3.61203 -0.511935 7.20273
RightToes  0.00048216 0.542163 -0.142577
Spine  18.0705 -0.0328771 1.28718
Spine1  0.312873 0.67577 -3.04489
HEad  5.13029 3.05441 1.08698
LeftShoulder1  4.99917 -8.58297 -35.2742
LeftArm  -23.6402 14.302 -15.4246
LeftForeArm  12.2146 -9.88716 -0.581045
LeftHand  -0.25398 0.0180481 5.50724
RightShoulder  2.11853 3.8033 22.7561
RightArm  -20.1837 -23.3316 19.8034
RightForeArm  -1.78199 7.1667 2.98063
RightHand  -1.86694 5.19788 -20.6197
LeftUpLeg  10.1128 7.91013 0.680034
LeftLeg  13.0615 20.2398 -0.19937
LeftFoot  -23.0415 -0.387259 -5.13075
LeftToes  1.06244e-005 4.65855e-005 -8.18506e-006
1046
root  9.88321 38.8677 2.95632 -177.549 -82.1124 176.223
RightUpLeg  -26.9884 -15.1897 -0.107499
RightLeg  12.8526 -4.8766 -0.204339
RightFoot  -3.53812 -0.563472 7.89056
RightToes  0.00048216 0.542163 -0.142577
Spine  18.8055 -0.520944 0.397449
Spine1  0.736885 0.0502743 -2.93498
HEad  4.8159 3.40239 1.19721
LeftShoulder1  5.89472 -9.71291 -38.4273
LeftArm  -20.1273 10.6049 -16.8192
LeftForeArm  17.9455 -6.89617 -1.58275
LeftHand  -0.25398 0.0180481 5.50724
RightShoulder  2.25121 4.07971 23.4864
RightArm  -22.5909 -24.9743 25.8723
RightForeArm  -1.649 7.47428 2.64703
RightHand  -2.08739 5.8939 -21.622
LeftUpLeg  11.497 7.98262 0.453182
LeftLeg  13.4081 19.819 -0.232154
LeftFoot  -23.8052 -0.417607 -5.12797
LeftToes  1.06244e-005 4.65855e-005 -8.18506e-006
1047
root  9.0355 38.5782 2.68558 -172.256 -82.6163 170.316
RightUpLeg  -26.7261 -12.4194 -2.24503
RightLeg  10.2823 -5.76446 0.988138
RightFoot  -3.24844 -0.585336 7.93874
RightToes  0.00048216 0.542163 -0.142577
Spine  19.9258 -1.07228 -0.606179
Spine1  1.19 -0.747455 -2.60371
HEad  4.20198 3.97077 1.29415
LeftShoulder1  6.57614 -10.5155 -40.6191
LeftArm  -17.6701 7.37653 -19.2221
LeftForeArm  23.2121 -5.14475 -2.46311
LeftHand  -0.25398 0.0180481 5.50724
RightShoulder  2.38298 4.41625 23.9099
RightArm  -24.9702 -26.2668 32.687
RightForeArm  -1.21032 7.45342 2.35221
RightHand  -2.16772 6.21411 -21.8302
LeftUpLeg  13.5434 8.21997 0.51822
LeftLeg  13.6501 18.7854 -0.363802
LeftFoot  -24.8131 -0.558597 -5.97727
LeftToes  1.06244e-005 4.65855e-005 -8.18506e-006
1048
root  8.05182 38.3063 2.38468 -171.007 -83.4519 168.529
RightUpLeg  -27.0702 -12.0642 -2.19604
RightLeg  11.0885 -4.31548 0.842294
RightFoot  -1.61117 -0.53031 6.16233
RightToes  0.00048216 0.542163 -0.142577
Spine  20.7794 -1.79829 -0.896448
Spine1  2.03448 -1.76384 -1.8116
HEad  3.303 4.77529 0.923103
LeftShoulder1  7.02528 -10.9581 -42.1817
LeftArm  -16.9032 5.08555 -22.5127
LeftForeArm  26.7168 -5.403 -2.92634
LeftHand  -0.25398 0.0180481 5.50724
RightShoulder  2.56298 4.87016 24.4565
RightArm  -26.1918 -27.019 38.9984
RightForeArm  -0.015093 6.87959 2.24502
RightHand  -2.05416 5.93819 -21.2038
LeftUpLeg  15.918 8.67241 1.42543
LeftLeg  13.514 16.91 -0.366719
LeftFoot  -25.7452 -0.779448 -7.3882
LeftToes  1.06244e-005 4.65855e-005 -8.18506e-006
1049
root  6.9076 38.061 2.06093 -178.669 -84.6771 176.1
RightUpLeg  -28.0086 -13.3956 -0.265031
RightLeg  14.4408 -2.54302 -0.0588679
RightFoot  1.85653 -0.393569 3.52393
RightToes  0.00048216 0.542163 -0.142577
Spine  21.0184 -2.82099 0.0785621
Spine1  2.99181 -2.94017 -0.833654
HEad  2.30083 5.81813 -0.157826
LeftShoulder1  7.23223 -11.0605 -43.179
LeftArm  -17.6999 4.05873 -26.5707
LeftForeArm  29.0044 -7.73023 -2.97588
LeftHand  -0.25398 0.0180481 5.50724
RightShoulder  2.76989 5.33377 25.2301
RightArm  -25.688 -27.3942 44.0171
RightForeArm  2.77365 6.20542 2.44782
RightHand  -1.87316 5.3558 -20.4085
LeftUpLeg  17.8362 9.43355 3.37327
LeftLeg  13.798 14.7999 0.380402
LeftFoot  -26.2752 -0.900575 -8.06504
LeftToes  1.06244e-005 4.65855e-005 -8.18506e-006
1050
root  5.61403 37.8167 1.71583 163.081 -85.4049 -165.561
RightUpLeg  -29.1052 -14.5659 2.06621
RightLeg  19.2465 -1.65803 -0.954953
RightFoot  5.12051 -0.204359 1.63779
RightToes  0.00048216 0.542163 -0.142577
Spine  21.1856 -3.89987 1.89255
Spine1  3.48011 -4.0064 0.122174
HEad  1.40464 7.14222 -1.70827
LeftShoulder1  7.2519 -10.9874 -43.5323
LeftArm  -18.8213 4.24399 -31.1067
LeftForeArm  30.9101 -11.3658 -2.92186
LeftHand  -0.25398 0.0180481 5.50724
RightShoulder  3.00102 5.77511 26.2723
RightArm  -23.7108 -27.7038 47.2765
RightForeArm  6.88346 6.23814 2.99497
RightHand  -1.78529 4.92773 -20.2521
LeftUpLeg  19.2409 10.5842 6.15022
LeftLeg  15.2839 12.4314 1.81877
LeftFoot  -26.4525 -1.06207 -9.16536
LeftToes  1.06244e-005 4.65855e-005 -8.18506e-006
1051
root  4.24352 37.6102 1.34566 145.82 -84.8207 -148.481
RightUpLeg  -29.5253 -13.9234 3.42416
RightLeg  24.4443 -2.26981 -1.34335
RightFoot  5.43719 0.0237664 0.0630341
RightToes  0.00048216 0.542163 -0.142577
Spine  21.8125 -4.63412 3.66779
Spine1  3.63768 -4.67261 1.21217
HEad  0.893273 8.68202 -3.19751
LeftShoulder1  7.2628 -10.9983 -43.5666
LeftArm  -18.3605 4.91995 -35.0076
LeftForeArm  33.0807 -15.0235 -2.95908
LeftHand  -0.25398 0.0180481 5.50724
RightShoulder  3.31133 6.31519 27.6997
RightArm  -21.026 -27.9195 48.5518
RightForeArm  11.0115 7.01107 3.69336
RightHand  -1.79084 4.78548 -20.5815
LeftUpLeg  20.4915 11.573 9.08659
LeftLeg  17.9766 9.76714 3.21229
LeftFoot  -25.7772 -1.52209 -13.2598
LeftToes  1.06244e-005 4.65855e-005 -8.18506e-006
1052
root  2.86918 37.5302 0.948988 139.944 -83.5955 -142.932
RightUpLeg  -29.1103 -13.3946 4.73345
RightLeg  28.6991 -2.23671 -1.55842
RightFoot  2.74704 0.264023 -2.01497
RightToes  0.00048216 0.542163 -0.142577
Spine  22.4413 -4.97586 5.06703
Spine1  4.10597 -4.91837 2.30121
HEad  1.11667 10.1227 -4.19631
LeftShoulder1  7.38725 -11.1958 -43.727
LeftArm  -16.0938 5.26721 -37.022
LeftForeArm  36.5772 -17.7573 -3.02471
LeftHand  -0.25398 0.0180481 5.50724
RightShoulder  3.69394 6.95999 29.3245
RightArm  -18.5414 -27.6341 48.3228
RightForeArm  14.5769 7.67773 4.23186
RightHand  -1.74081 4.73678 -20.1135
LeftUpLeg  20.5187 10.9076 10.9351
LeftLeg  22.8684 9.43244 4.77634
LeftFoot  -22.347 -1.63691 -18.4733
LeftToes  1.06244e-005 4.65855e-005 -8.18506e-006
1053
root  1.52593 37.5837 0.543693 138.718 -82.6567 -141.736
RightUpLeg  -28.0453 -13.1872 5.70338
RightLeg  31.4106 -2.13136 -1.64983
RightFoot  -0.837414 0.315438 -3.45123
RightToes  0.00048216 0.542163 -0.142577
Spine  22.3544 -5.19173 6.38459
Spine1  4.94547 -4.91355 2.8003
HEad  2.1134 11.0444 -4.57732
LeftShoulder1  7.55212 -11.4515 -43.9524
LeftArm  -13.5627 5.11481 -37.1566
LeftForeArm  40.6191 -19.4523 -2.94855
LeftHand  -0.25398 0.0180481 5.50724
RightShoulder  4.01716 7.50841 30.5273
RightArm  -16.9177 -26.6085 47.6888
RightForeArm  17.2263 7.79366 4.49952
RightHand  -1.56835 4.53509 -18.536
LeftUpLeg  17.37 9.45674 11.4859
LeftLeg  31.804 11.6391 8.09056
LeftFoot  -14.312 -0.463483 -18.3174
LeftToes  1.06244e-005 4.65855e-005 -8.18506e-006
1054
root  0.288385 37.7176 0.180954 136.703 -82.1892 -139.422
RightUpLeg  -26.6193 -13.3322 6.32303
RightLeg  32.6266 -2.03395 -1.65721
RightFoot  -3.56459 0.194213 -3.1753
RightToes  0.00048216 0.542163 -0.142577
Spine  21.7982 -5.47506 8.09687
Spine1  5.76331 -4.73288 2.58588
HEad  3.36161 11.2118 -4.45856
LeftShoulder1  7.64061 -11.6445 -43.8993
LeftArm  -12.8587 4.84971 -36.4296
LeftForeArm  42.5082 -20.3992 -2.83556
LeftHand  -0.25398 0.0180481 5.50724
RightShoulder  4.18994 7.84987 30.9554
RightArm  -16.0417 -24.9874 47.1907
RightForeArm  17.5719 7.93374 4.70681
RightHand  -1.41655 4.10772 -17.5347
LeftUpLeg  11.3264 8.42843 11.4445
LeftLeg  42.8757 12.4929 12.4739
LeftFoot  -3.28768 0.737066 -10.5798
LeftToes  1.06244e-005 4.65855e-005 -8.18506e-006
